HIERARCHY
ROOT Hips
{
	OFFSET 0.000000 0.000000 0.000000
	CHANNELS 6 Xposition Yposition Zposition Xrotation Yrotation Zrotation
	JOINT LeftUpLeg_virtual
	{
		OFFSET 0.000000 0.000000 0.000000
		CHANNELS 3 Xrotation Yrotation Zrotation
		JOINT LeftUpLeg
		{
			OFFSET 15.427100 -6.655098 0.678600
			CHANNELS 3 Xrotation Yrotation Zrotation
			JOINT LeftLeg
			{
				OFFSET 4.081073 -39.591068 13.024000
				CHANNELS 3 Xrotation Yrotation Zrotation
				JOINT LeftFoot
				{
					OFFSET -4.081074 -37.707932 -15.979700
					CHANNELS 3 Xrotation Yrotation Zrotation
					JOINT LeftToeBase
					{
						OFFSET 5.346399 -15.068900 20.645000
						CHANNELS 3 Xrotation Yrotation Zrotation
						JOINT LeftToe_End
						{
							OFFSET 2.754700 0.931300 11.300900
							CHANNELS 3 Xrotation Yrotation Zrotation
							End Site
							{
								OFFSET 0 0 0
							}
						}
					}
				}
			}
		}
	}
	JOINT RightUpLeg_virtual
	{
		OFFSET 0.000000 0.000000 0.000000
		CHANNELS 3 Xrotation Yrotation Zrotation
		JOINT RightUpLeg
		{
			OFFSET -15.569500 -6.655098 0.678600
			CHANNELS 3 Xrotation Yrotation Zrotation
			JOINT RightLeg
			{
				OFFSET -4.081825 -39.591045 13.023800
				CHANNELS 3 Xrotation Yrotation Zrotation
				JOINT RightFoot
				{
					OFFSET 4.081824 -37.707954 -15.979600
					CHANNELS 3 Xrotation Yrotation Zrotation
					JOINT RightToeBase
					{
						OFFSET -5.346400 -15.068900 20.645000
						CHANNELS 3 Xrotation Yrotation Zrotation
						JOINT RightToe_End
						{
							OFFSET -2.754700 0.931300 11.300900
							CHANNELS 3 Xrotation Yrotation Zrotation
							End Site
							{
								OFFSET 0 0 0
							}
						}
					}
				}
			}
		}
	}
	JOINT Spine_virtual
	{
		OFFSET 0.000000 0.000000 0.000000
		CHANNELS 3 Xrotation Yrotation Zrotation
		JOINT Spine
		{
			OFFSET -0.279200 12.230698 -2.892100
			CHANNELS 3 Xrotation Yrotation Zrotation
			JOINT Spine1
			{
				OFFSET -0.232667 10.192268 -1.242267
				CHANNELS 3 Xrotation Yrotation Zrotation
				JOINT Spine1_split
				{
					OFFSET -0.232667 10.192268 -1.242267
					CHANNELS 3 Xrotation Yrotation Zrotation
					JOINT Spine2
					{
						OFFSET -0.232667 10.192268 -1.242267
						CHANNELS 3 Xrotation Yrotation Zrotation
						JOINT Neck_virtual
						{
							OFFSET 0.000000 0.000000 0.000000
							CHANNELS 3 Xrotation Yrotation Zrotation
							JOINT Neck
							{
								OFFSET -0.418800 17.814194 8.416900
								CHANNELS 3 Xrotation Yrotation Zrotation
								JOINT Head
								{
									OFFSET 0.000000 7.031097 3.806800
									CHANNELS 3 Xrotation Yrotation Zrotation
									JOINT HeadTop_End
									{
										OFFSET 0.000000 24.646606 12.978600
										CHANNELS 3 Xrotation Yrotation Zrotation
										End Site
										{
											OFFSET 0 0 0
										}
									}
								}
							}
						}
						JOINT LeftShoulder_virtual
						{
							OFFSET 0.000000 0.000000 0.000000
							CHANNELS 3 Xrotation Yrotation Zrotation
							JOINT LeftShoulder
							{
								OFFSET 8.476499 7.247704 -3.868750
								CHANNELS 3 Xrotation Yrotation Zrotation
								JOINT LeftShoulder_split
								{
									OFFSET 8.476499 7.247704 -3.868750
									CHANNELS 3 Xrotation Yrotation Zrotation
									JOINT LeftArm
									{
										OFFSET 9.308998 -2.777710 0.208600
										CHANNELS 3 Xrotation Yrotation Zrotation
										JOINT LeftForeArm
										{
											OFFSET 29.972298 0.000000 0.000000
											CHANNELS 3 Xrotation Yrotation Zrotation
											JOINT LeftHand
											{
												OFFSET 26.026505 0.000000 0.000000
												CHANNELS 3 Xrotation Yrotation Zrotation
												End Site
												{
													OFFSET 0 0 0
												}
											}
										}
									}
								}
							}
						}
						JOINT RightShoulder_virtual
						{
							OFFSET 0.000000 0.000000 0.000000
							CHANNELS 3 Xrotation Yrotation Zrotation
							JOINT RightShoulder
							{
								OFFSET -7.570500 7.247704 -3.868750
								CHANNELS 3 Xrotation Yrotation Zrotation
								JOINT RightShoulder_split
								{
									OFFSET -7.570500 7.247704 -3.868750
									CHANNELS 3 Xrotation Yrotation Zrotation
									JOINT RightArm
									{
										OFFSET -9.308998 -2.777710 0.208500
										CHANNELS 3 Xrotation Yrotation Zrotation
										JOINT RightForeArm
										{
											OFFSET -29.972300 0.000000 0.000000
											CHANNELS 3 Xrotation Yrotation Zrotation
											JOINT RightHand
											{
												OFFSET -26.026505 0.000000 0.000000
												CHANNELS 3 Xrotation Yrotation Zrotation
												End Site
												{
													OFFSET 0 0 0
												}
											}
										}
									}
								}
							}
						}
					}
				}
			}
		}
	}
}
MOTION
Frames: 4
Frame Time: 0.03333333
18.127457 11.672714 0.463512 0.000000 0.000000 0.000000 -86.194453 65.528077 3.554334 -96.686184 14.245890 2.453877 79.415593 23.648364 1.780157 22.346905 -2.051420 6.614474 3.378676 0.658123 -0.874467 0.000000 0.000000 0.000000 -95.602615 69.899630 11.819549 -15.842296 6.966311 5.551886 72.203398 1.207582 0.608329 11.458023 -6.650735 11.010965 -8.281569 0.062976 1.407343 0.000000 0.000000 0.000000 -80.642725 66.829733 -4.759935 13.339362 -5.487170 -7.301485 11.414959 -4.263714 -4.862419 0.961946 -0.062332 0.518912 0.000000 0.000000 0.000000 9.904894 -5.406821 -3.586074 -3.413641 6.453507 -16.994860 -28.826137 13.831166 -14.118099 0.000000 0.000000 0.000000 10.356523 -4.849952 -4.053631 3.124339 -7.096911 31.042325 -3.308993 0.199252 -1.251979 -89.967286 26.424714 -56.659496 2.137409 -29.303612 0.938911 0.000000 0.000000 0.000000 11.209482 -4.944986 -3.763777 5.312196 11.531494 -17.862169 14.173017 3.433983 0.156738 -47.186434 34.110429 104.868334 175.968855 72.919871 -175.649653 0.000000 0.000000 0.000000 
18.161707 11.658222 0.391983 0.000000 0.000000 0.000000 -85.747855 65.474180 3.298371 -96.916928 14.408069 2.436546 79.190156 23.514188 1.710943 22.221966 -2.402531 6.669356 3.336946 0.625318 -0.696689 0.000000 0.000000 0.000000 -94.847190 69.660608 10.955386 -15.932284 6.801463 5.581515 72.314307 1.212170 0.542154 11.502947 -6.549540 10.905644 -8.425013 0.069964 1.418834 0.000000 0.000000 0.000000 -80.183129 66.772428 -4.953463 13.245543 -5.474261 -7.244397 11.435396 -4.345563 -4.801182 1.143796 0.227248 0.399719 0.000000 0.000000 0.000000 9.785353 -5.510218 -3.547729 -3.308066 6.384882 -17.025112 -28.673547 13.507004 -14.157750 0.000000 0.000000 0.000000 10.378513 -4.937779 -3.953667 3.006405 -6.934103 30.749863 -2.894779 -0.069087 -0.736230 -89.925642 26.159746 -56.886149 2.069747 -29.549536 0.770477 0.000000 0.000000 0.000000 11.175948 -5.046189 -3.710936 5.297099 11.642335 -17.596591 14.489903 3.340301 0.213615 -47.222558 34.127477 105.019998 176.120485 72.818416 -175.776489 0.000000 0.000000 0.000000 
18.165512 11.601730 0.274750 0.000000 0.000000 0.000000 -85.494120 65.434612 3.144883 -97.155828 14.685550 2.531529 78.957677 23.344702 1.593353 21.834132 -2.777482 6.927746 3.325674 0.576120 -0.542522 0.000000 0.000000 0.000000 -93.944942 69.401067 9.951002 -15.985515 6.601356 5.572704 72.442687 1.372915 0.489923 11.515670 -6.371363 11.060194 -8.731331 0.066110 1.396843 0.000000 0.000000 0.000000 -79.864685 66.818108 -4.980537 13.170791 -5.457209 -7.099550 11.419807 -4.443172 -4.691086 1.054680 0.544995 0.068837 0.000000 0.000000 0.000000 9.623223 -5.633926 -3.471399 -2.906585 6.223548 -17.203507 -28.469318 12.988967 -14.175877 0.000000 0.000000 0.000000 10.364167 -5.040914 -3.796282 2.816907 -6.702742 30.449933 -2.411588 -0.274242 -0.066469 -89.688764 25.751072 -57.468337 2.157674 -29.211240 0.681192 0.000000 0.000000 0.000000 11.104801 -5.153430 -3.566750 5.219730 11.697066 -17.260798 14.612116 3.320580 0.182102 -47.131461 34.444606 105.034287 176.173200 73.141306 -175.911959 0.000000 0.000000 0.000000 
18.108046 11.524014 0.164097 0.000000 0.000000 0.000000 -85.479073 65.421587 3.162604 -97.334587 15.030818 2.702500 78.813485 23.166641 1.448541 21.190614 -3.123236 7.406822 3.392907 0.514478 -0.445887 0.000000 0.000000 0.000000 -93.135210 69.168684 9.083826 -15.932714 6.356302 5.525988 72.464981 1.617112 0.413539 11.321809 -6.240014 11.374611 -9.038855 0.054799 1.356288 0.000000 0.000000 0.000000 -79.744829 66.987067 -4.803508 13.127699 -5.410981 -6.923212 11.358607 -4.518081 -4.565801 0.889273 0.836780 -0.196778 0.000000 0.000000 0.000000 9.447611 -5.735089 -3.382114 -2.286427 5.949637 -17.512856 -28.244818 12.342924 -14.191531 0.000000 0.000000 0.000000 10.294849 -5.125204 -3.622334 2.609963 -6.460896 30.176561 -2.121519 -0.236112 0.421270 -89.412149 25.183246 -58.144581 2.353868 -28.476640 0.658219 0.000000 0.000000 0.000000 10.991017 -5.228246 -3.391232 5.130307 11.644207 -16.962490 14.451883 3.440948 0.148061 -47.008965 35.022580 104.942715 176.227063 73.629480 -176.135703 0.000000 0.000000 0.000000 
